# xmcd
#
# Track frame offsets:
#	150
#	15640
#	29165
#	42620
#	56302
#	68462
#	80817
#	95107
#	108365
#	121590
#	135385
#	148930
#	162462
#	177212
#	188955
#	200505
#
# Disc length: 2842 seconds
#
# Revision: 2
# Processed by: cddbd v1.5.2PL0 Copyright (c) Steve Scherf et al.
# Submitted via: dBpowerAMP V4.0
#
DISCID=e50b1810
DTITLE=The Golden Years - Swing Groups 1931 - 1936
DYEAR=1931
DGENRE=Jazz
TTITLE0=Benny Goodman Quartet - My Melancholy Baby
TTITLE1=The Chaleston Chasers - Beale Street Blues
TTITLE2=Red Nichols - Fan it
TTITLE3=Wingy Malone and His Orchestra - Never Had No Lovin'
TTITLE4=Red Norvo and His Swing Septet - Tomboy
TTITLE5=Freddie Jenkins and His Harlem Seven - Toledo Shuffle
TTITLE6=Bud Freeman and His Windy City Five - The Buzzard
TTITLE7=Mound City Blue Blowers - Muskrat Ramble
TTITLE8=Gene Krupa's Swing Band - Swing is Here
TTITLE9=Jimmie Noone and His New Orleans Band - The Blues Jumped a Rabbit
TTITLE10=Mezz Mezzrow and His Swing Band - Mutiny in The Parlor
TTITLE11=Barney Bigard and His Jazzopaters - Frolic Sam
TTITLE12=Teddy Wilson and His Orchestra - Warmin' Up
TTITLE13=Bunny Berrigan and His Boys - Rhythm Saved The World
TTITLE14=Fats Waller and His Rhythn - Paswonky
TTITLE15=Jones - Smith Incorporated - Shoe Shine Boy
EXTD=
EXTT0=
EXTT1=
EXTT2=
EXTT3=
EXTT4=
EXTT5=
EXTT6=
EXTT7=
EXTT8=
EXTT9=
EXTT10=
EXTT11=
EXTT12=
EXTT13=
EXTT14=
EXTT15=
PLAYORDER=
